<?xml version="1.0" encoding="UTF-8" standalone="no"?>
<!-- Created with Inkscape (http://www.inkscape.org/) -->

<svg
   width="66.356461mm"
   height="143.7966mm"
   style="height: 100%; width: 100%;"
   viewBox="0 0 66.356461 143.7966"
   version="1.1"
   id="svg31"
   inkscape:version="1.1.2 (b8e25be8, 2022-02-05)"
   sodipodi:docname="bodymapFoot.svg"
   inkscape:export-filename="/Users/gavin/Documents/bodyBaseWithAccents.png"
   inkscape:export-xdpi="96"
   inkscape:export-ydpi="96"
   xmlns:inkscape="http://www.inkscape.org/namespaces/inkscape"
   xmlns:sodipodi="http://sodipodi.sourceforge.net/DTD/sodipodi-0.dtd"
   xmlns="http://www.w3.org/2000/svg"
   xmlns:svg="http://www.w3.org/2000/svg">
  <sodipodi:namedview
     id="namedview33"
     pagecolor="#ffffff"
     bordercolor="#666666"
     borderopacity="1.0"
     inkscape:pageshadow="2"
     inkscape:pageopacity="0.0"
     inkscape:pagecheckerboard="0"
     inkscape:document-units="mm"
     showgrid="false"
     fit-margin-top="0"
     fit-margin-left="0"
     fit-margin-right="0"
     fit-margin-bottom="0"
     inkscape:zoom="1.31"
     inkscape:cx="185.1145"
     inkscape:cy="250.38168"
     inkscape:window-width="1136"
     inkscape:window-height="894"
     inkscape:window-x="506"
     inkscape:window-y="100"
     inkscape:window-maximized="0"
     inkscape:current-layer="layer3"
     inkscape:lockguides="true" />
  <defs
     id="defs28" />
  <g
     inkscape:groupmode="layer"
     id="layer2"
     inkscape:label="Base Outline"
     style="display:inline"
     transform="translate(-460.49555,-186.39742)"
     sodipodi:insensitive="true">
    <path
       style="display:inline;fill:none;stroke:#000000;stroke-width:0.264583px;stroke-linecap:butt;stroke-linejoin:miter;stroke-opacity:1"
       d="m 471.51419,242.69307 c 1.7323,2.59845 6.48671,12.64216 7.71163,14.47954 1.22491,1.8374 4.04411,8.86996 3.58214,13.6937 -0.48699,5.08492 -0.51385,8.69693 0.34358,12.4942 0.85746,3.79725 0.63635,8.81944 0.88136,11.26929 0.24497,2.44983 1.46989,4.8997 0.12247,8.08448 -1.34741,3.18482 -2.08235,6.85959 -1.22491,10.16688 0.85743,3.30729 1.83737,8.45196 4.28723,11.75925 2.44985,3.30729 4.25955,6.52944 7.21039,5.05401 2.95085,-1.47542 3.47438,-2.37971 4.2359,-1.71341 0.7615,0.66633 2.28452,1.85618 4.04551,1.76099 1.76099,-0.0952 3.14124,-0.52353 3.71237,-1.38023 0.57113,-0.85669 1.18986,-2.61768 0.61873,-4.2835 -0.57113,-1.66579 -1.04709,-3.61714 -0.66633,-4.28347 0.38076,-0.66633 1.23379,-2.14541 1.18986,-0.42836 -0.0251,0.98086 0.42833,2.42731 1.14226,3.37921 0.71392,0.95189 1.47542,2.80805 2.90324,2.85564 1.42785,0.0476 2.85568,-0.0952 3.61717,-1.09466 0.76153,-0.99949 0.47596,-3.80754 1.57062,-3.52197 1.09467,0.28556 1.42783,0.57113 2.47492,0.0952 1.04706,-0.47593 2.57008,-1.38023 2.80805,-2.47489 0.23796,-1.09468 -0.0952,-2.14175 0.61872,-2.18934 0.71393,-0.0476 1.95139,-0.7615 2.23695,-1.66579 0.28557,-0.9043 0.42833,-2.95085 -0.23799,-4.04554 -0.6663,-1.09466 -0.99947,-1.95135 -1.76099,-2.66528 -0.7615,-0.7139 -0.28556,-0.47593 -0.14277,-0.95189 0.14277,-0.47593 0.90429,-1.23745 1.33263,-2.52248 0.42836,-1.28506 1.23745,-2.95085 1.47542,-4.94983 0.23799,-1.99895 0.71393,-4.807 0.52356,-6.71078 -0.1904,-1.90379 -0.95189,-7.28195 -1.04709,-9.2809 -0.0952,-1.99895 -0.42833,-6.52042 -0.0952,-8.4718 0.33317,-1.95135 0.80913,-4.8546 0.85672,-6.75838 0.0476,-1.90379 0.33314,-5.71132 0.52353,-7.61509 0.19037,-1.90377 0.57113,-9.32849 0.19037,-11.80339 -0.38076,-2.47491 -1.23745,-9.66165 -2.66528,-11.51783 -1.42782,-1.85618 -3.04604,-4.33108 -5.75892,-4.90221 -2.71285,-0.57114 -6.94875,-1.23746 -9.99479,-2.5701 -3.04604,-1.33264 -6.80599,-3.80754 -8.04344,-5.61613 -1.23746,-1.80858 -5.045,-8.66216 -5.99689,-11.7082 -0.95189,-3.04604 -2.19565,-12.61668 -2.19565,-12.61668 0,0 -1.32452,-7.39138 -5.74288,-11.77566 -2.26154,-2.24409 -11.77012,-2.42322 -13.57871,0.0993 -1.80858,2.5225 -8.37282,13.32693 -9.71076,17.1186 -2.20059,6.23639 -2.14175,15.88627 -2.23695,18.36118 -0.0952,2.4749 3.13326,7.21994 4.00505,8.52762 z"
       id="path3417-5-3"
       sodipodi:nodetypes="ssssssssssssssssssssssssssssssssssssssscssssss" />
  </g>
  <g
     inkscape:groupmode="layer"
     id="layer6"
     inkscape:label="Dermatomes"
     style="display:none"
     transform="translate(-460.49555,-186.39742)"
     sodipodi:insensitive="true">
    <path
       style="display:inline;fill:none;stroke:#000000;stroke-width:0.264583px;stroke-linecap:butt;stroke-linejoin:miter;stroke-opacity:1"
       d="m 498.06372,327.74326 c 1.30754,-1.38446 2.1536,-4.3841 1.38446,-6.76842 -0.76915,-2.38432 -2.61507,-3.99952 -1.69209,-4.84558 0.92294,-0.84603 1.769,-1.92283 1.69209,-2.99963 -0.0769,-1.07677 -2.38432,-18.76695 -3.46112,-22.30498 -1.07681,-3.53804 -6.38384,-23.15104 -13.07534,-23.84327 3.15347,-5.15321 4.69174,-16.38262 -7.46063,-32.61143 -12.15237,-16.2288 -10.92175,-14.45978 -14.38287,-18.4593"
       id="path10894" />
    <path
       style="display:inline;fill:none;stroke:#000000;stroke-width:0.264583px;stroke-linecap:butt;stroke-linejoin:miter;stroke-opacity:1"
       d="m 497.90989,220.37165 c -5.99927,0.53839 -22.3819,-18.92079 -26.38142,-30.61168"
       id="path10896" />
  </g>
  <g
     inkscape:groupmode="layer"
     id="layer10"
     inkscape:label="Dermatomes Areas"
     style="display:none"
     transform="translate(-460.49555,-186.39742)"
     sodipodi:insensitive="true">
    <path
       style="fill:#ff6600;stroke:#000000;stroke-width:0.296053;stroke-linecap:round;stroke-linejoin:round;stroke-miterlimit:4;stroke-dasharray:none"
       d="m 500.88327,329.03199 c -2.24959,-1.10453 -2.31312,-1.21716 -1.59813,-2.83348 1.02859,-2.32534 0.88624,-4.46368 -0.48424,-7.27461 l -1.1421,-2.34252 0.77925,-0.81684 c 1.44473,-1.51437 1.45658,-1.81184 0.38301,-9.60015 -1.4446,-10.47977 -2.13577,-14.09017 -3.61768,-18.89754 -2.30185,-7.46726 -4.60134,-12.88868 -6.91083,-16.29352 -1.24495,-1.83536 -3.14751,-3.67223 -4.12488,-3.98246 -0.44921,-0.14255 -0.58836,-0.35491 -0.45636,-0.69643 1.539,-3.98188 2.02735,-8.4489 1.35253,-12.37198 -0.83106,-4.83144 -3.38403,-10.84014 -6.83893,-16.09629 -2.1459,-3.26469 -11.8727,-16.18456 -14.8826,-19.76817 l -2.05703,-2.44914 0.48657,-3.38277 c 0.84751,-5.89227 2.03843,-8.743 7.32859,-17.54293 l 2.35423,-3.91612 1.7389,3.47204 c 5.19451,10.37173 15.85812,22.83168 21.97867,25.6811 0.86146,0.40106 1.76615,0.73446 2.01039,0.74089 0.24423,0.006 0.91035,0.83706 1.48026,1.84583 1.46256,2.58885 2.6484,3.81188 5.42361,5.59364 3.12907,2.00893 5.89548,3.06675 10.74047,4.10693 2.15501,0.46266 4.31377,1.04575 4.79722,1.29576 1.41372,0.73106 4.13342,3.95435 4.76829,5.65118 0.96914,2.59023 2.09973,10.15492 2.09555,14.02098 -0.004,4.02062 -1.01367,18.11144 -1.46404,20.43946 -0.58227,3.00956 -0.39487,8.21687 0.61648,17.13061 0.63867,5.62901 -0.33661,11.42248 -2.60099,15.45068 l -0.82478,1.46728 0.63256,0.68162 c 1.02227,1.10156 2.16424,3.50512 2.16424,4.55512 0,1.57503 -0.48818,2.42657 -1.76437,3.07766 -0.89874,0.45849 -1.19613,0.78795 -1.19613,1.32506 0,1.32379 -0.55367,2.18614 -1.91627,2.98468 -1.1384,0.66715 -1.56451,0.76282 -2.66343,0.59804 l -1.30821,-0.19619 -0.34237,1.27389 c -0.59513,2.21435 -0.85066,2.62615 -1.90233,3.06557 -1.62819,0.6803 -2.49507,0.54403 -3.5265,-0.55436 -1.16982,-1.24576 -2.27152,-3.45442 -2.47324,-4.95826 -0.1791,-1.3353 -0.68196,-1.49395 -1.37634,-0.43424 -0.59494,0.90797 -0.60552,2.01282 -0.0373,3.88607 0.82397,2.71611 0.41227,5.1467 -0.99497,5.87441 -1.4546,0.75221 -3.32478,0.82881 -4.62682,0.1895 z"
       id="path14068" />
    <path
       style="fill:#ff6600;stroke:#000000;stroke-width:0.296053;stroke-linecap:round;stroke-linejoin:round;stroke-miterlimit:4;stroke-dasharray:none"
       d="m 491.63529,329.32427 c -1.29963,-0.80946 -4.38526,-5.01255 -5.60845,-7.6395 -0.5492,-1.17946 -1.4732,-3.97716 -2.05335,-6.2171 -1.31308,-5.06976 -1.28395,-7.3642 0.14557,-11.4627 0.98301,-2.81837 1.17298,-5.09299 0.62397,-7.47173 -0.15783,-0.68389 -0.41661,-3.54819 -0.57505,-6.3651 -0.15843,-2.81692 -0.5012,-6.18747 -0.76173,-7.49009 -0.3691,-1.84542 -0.45297,-3.79019 -0.37989,-8.80677 0.0516,-3.5411 0.20034,-6.43871 0.33054,-6.43913 0.1302,0 0.6164,0.19555 1.0804,0.4355 4.28223,2.21443 10.30476,16.42076 12.45807,29.38693 1.26751,7.63235 2.35196,16.03224 2.14378,16.60527 -0.0991,0.27266 -0.55731,0.93337 -1.01832,1.46823 -0.46101,0.53485 -0.8382,1.12443 -0.8382,1.31014 0,0.18573 0.49786,1.3453 1.10635,2.5768 0.899,1.81943 1.10215,2.55061 1.08379,3.90099 -0.0359,2.64134 -0.88488,4.03402 -3.29004,5.39702 -2.5286,1.43293 -3.24078,1.56284 -4.44744,0.81124 z"
       id="path14107" />
    <path
       style="fill:#ff6600;stroke:#000000;stroke-width:0.296053;stroke-linecap:round;stroke-linejoin:round;stroke-miterlimit:4;stroke-dasharray:none"
       d="m 482.6855,265.74434 c -0.0132,-0.90929 -1.42701,-5.29658 -2.22311,-6.89848 -4.39793,-8.84945 -8.34911,-15.82675 -12.55707,-22.17422 -2.60485,-3.92923 -5.17639,-8.03745 -5.71453,-9.12938 -0.90821,-1.84273 -0.98549,-2.23158 -1.07595,-5.41447 -0.0536,-1.88605 0.013,-3.84548 0.14801,-4.3543 l 0.2455,-0.92513 1.73294,2.07521 c 2.60416,3.11853 13.29764,17.37601 14.88628,19.84772 1.97734,3.07646 4.67948,8.81256 5.62142,11.93314 0.70779,2.34484 0.80708,3.17943 0.82785,6.95723 0.0244,4.42157 -0.38706,6.75647 -1.43422,8.14142 -0.44345,0.58648 -0.44781,0.58592 -0.45712,-0.0587 z"
       id="path14146" />
    <path
       style="fill:#ff6600;stroke:#000000;stroke-width:0.296053;stroke-linecap:round;stroke-linejoin:round;stroke-miterlimit:4;stroke-dasharray:none"
       d="m 495.55433,219.50597 c -4.29308,-1.97244 -12.1465,-10.21741 -17.74881,-18.63377 -2.41252,-3.62431 -5.78731,-9.8946 -5.78731,-10.75269 0,-0.90128 1.70339,-2.28838 3.42469,-2.78878 2.18516,-0.63524 7.05101,-0.46746 8.94032,0.30827 1.6165,0.66373 3.25501,2.53369 4.7488,5.41959 1.62792,3.14503 2.28674,5.48275 3.16994,11.24816 1.16721,7.61936 1.80888,9.68926 4.81579,15.53427 0.18087,0.35163 -0.28715,0.25132 -1.56342,-0.33505 z"
       id="path14185" />
  </g>
  <g
     inkscape:groupmode="layer"
     id="layer7"
     inkscape:label="Cutaneous Nerves"
     style="display:none"
     transform="translate(-460.49555,-186.39742)"
     sodipodi:insensitive="true">
    <path
       style="display:inline;fill:none;stroke:#000000;stroke-width:0.264583;stroke-linecap:round;stroke-linejoin:round;stroke-miterlimit:4;stroke-dasharray:none;stroke-dashoffset:0;stroke-opacity:1"
       d="m 484.36389,302.24235 c 1.4111,-3.175 1.85208,-4.93887 3.52777,-7.14375 1.67569,-2.20485 4.40973,-4.14512 6.1736,-6.52637 1.7639,-2.38125 4.32155,-8.20209 5.02709,-10.31875 0.70556,-2.11667 2.11666,-9.78959 2.38125,-12.34723 0.26458,-2.55764 0.97014,-11.28889 1.23473,-12.87639 0.26458,-1.5875 1.32291,-6.87917 2.29306,-8.90764 0.97012,-2.02847 3.175,-6.52639 4.23333,-7.76111 1.05834,-1.23472 4.23334,-3.79236 7.14375,-4.14514"
       id="path3681-5" />
    <path
       style="fill:none;stroke:#000000;stroke-width:0.264583px;stroke-linecap:round;stroke-linejoin:round;stroke-opacity:1"
       d="m 501.54839,264.45132 c 4.42495,3.45952 7.32129,6.99948 7.80399,12.79214 0.48274,5.79268 1.52864,31.77921 2.41364,36.36507"
       id="path10346" />
    <path
       style="display:inline;fill:none;stroke:#000000;stroke-width:0.264583px;stroke-linecap:round;stroke-linejoin:round;stroke-opacity:1"
       d="m 513.02731,313.2412 c 0.8091,1.61822 2.2764,4.11772 2.46677,4.97441 0.19037,0.8567 0.80909,2.37972 0.80909,3.04605"
       id="path3609-5"
       sodipodi:nodetypes="csc" />
    <path
       style="fill:none;stroke:#000000;stroke-width:0.264583px;stroke-linecap:round;stroke-linejoin:round;stroke-opacity:1"
       d="m 511.76602,313.60853 1.26129,-0.36733"
       id="path10484"
       sodipodi:nodetypes="cc" />
    <path
       style="fill:none;stroke:#000000;stroke-width:0.264583px;stroke-linecap:butt;stroke-linejoin:miter;stroke-opacity:1"
       d="m 491.09436,291.58006 c -0.15383,-4.15335 -2.1536,-30.15019 -6.38386,-36.14947 -4.23024,-5.99927 -16.53646,-21.38202 -20.30521,-23.84326"
       id="path10886" />
    <path
       style="fill:none;stroke:#000000;stroke-width:0.264583px;stroke-linecap:butt;stroke-linejoin:miter;stroke-opacity:1"
       d="m 503.0929,251.35416 c -4.99941,-3.84568 -13.53683,-15.22892 -16.53646,-19.53609 -2.99963,-4.30717 -17.92092,-29.6118 -20.53598,-33.14983"
       id="path10888" />
    <path
       style="fill:none;stroke:#000000;stroke-width:0.264583px;stroke-linecap:butt;stroke-linejoin:miter;stroke-opacity:1"
       d="m 508.16919,237.97117 c -5.15321,-3.53803 -12.84459,-7.38372 -19.22843,-19.92066 -6.38384,-12.53695 -9.92187,-26.30451 -11.84471,-31.53465"
       id="path10890" />
    <path
       style="fill:none;stroke:#000000;stroke-width:0.264583px;stroke-linecap:butt;stroke-linejoin:miter;stroke-opacity:1"
       d="m 483.09532,204.66751 c 2.38432,2.2305 8.15284,6.76841 11.07559,8.15286"
       id="path10892" />
  </g>
  <g
     inkscape:groupmode="layer"
     id="layer9"
     inkscape:label="Cutaneous Nerves Areas"
     style="display:none"
     transform="translate(-460.49555,-186.39742)"
     sodipodi:insensitive="true">
    <path
       style="fill:#0000ff;stroke:#000000;stroke-width:1.11894;stroke-linecap:round;stroke-linejoin:round;stroke-miterlimit:4;stroke-dasharray:none"
       d="m 1954.6626,1212.718 c -1.6616,-0.3269 -2.7425,-1.8511 -3.6616,-5.1625 -0.7172,-2.5843 -3.4104,-9.1045 -5.9849,-14.4894 -3.8573,-8.0679 -5.1289,-9.7907 -7.2268,-9.7907 -1.7376,0 -2.7136,-0.7993 -3.0743,-2.5176 -0.9992,-4.7601 -2.8369,-31.7098 -5.7033,-83.6405 -1.7318,-31.3748 -3.5252,-54.8721 -4.5176,-59.1883 -2.5856,-11.2459 -7.6854,-19.7307 -18.1383,-30.1773 l -9.3672,-9.36168 1.8613,-20.29015 c 3.4125,-37.1999 8.3954,-53.92559 23.5752,-79.1319 6.5701,-10.90981 23.1554,-20.98522 32.1801,-19.54912 11.5049,1.83079 24.1705,14.22791 28.0618,27.46696 2.1966,7.47326 5.9331,29.0401 6.8842,39.73454 0.9656,10.85841 -2.82,69.85305 -5.6722,88.39595 -2.0251,13.1656 -1.5292,28.4027 1.855,57.0001 1.9299,16.3079 2.0669,20.5285 0.9804,30.2112 -1.573,14.0189 -3.5644,21.2905 -8.709,31.8008 -3.2572,6.6544 -3.7808,8.5897 -2.7244,10.0704 6.0083,8.4228 8.0135,13.2649 8.0236,19.3752 0.01,5.5366 -0.3682,6.6505 -2.9377,8.6717 -1.6216,1.2755 -3.618,2.3191 -4.4364,2.3191 -1.9973,0 -3.8048,3.5933 -3.8048,7.5639 0,3.5385 -2.8586,6.7397 -8.6162,9.6487 -3.581,1.8094 -4.4319,1.9095 -8.8469,1.0406 z"
       id="path13601"
       transform="scale(0.26458333)" />
    <path
       style="fill:#0000ff;stroke:#000000;stroke-width:1.11894;stroke-linecap:round;stroke-linejoin:round;stroke-miterlimit:4;stroke-dasharray:none"
       d="m 1857.008,1243.9647 c -3.9979,-2.7814 -16.6055,-19.9948 -20.2728,-27.6789 -1.7731,-3.7152 -5.0897,-13.7953 -7.3703,-22.4002 -6.3973,-24.138 -5.6728,-32.358 5.0634,-57.4552 6.6888,-15.6358 9.2645,-19.4153 22.9112,-33.6192 10.5643,-10.9958 13.3603,-14.7047 18.2188,-24.1674 3.1566,-6.1481 7.3021,-15.1153 9.2122,-19.9271 3.4836,-8.7753 9.5226,-35.8457 10.8677,-48.715 0.3991,-3.818 1.2659,-6.8751 1.9493,-6.8751 2.3758,0 16.9453,16.3611 19.9601,22.4146 5.4891,11.0216 6.2869,17.0612 9.233,69.8977 2.7369,49.083 4.3775,73.3887 5.7583,85.3082 0.6318,5.4543 0.8611,5.8181 3.2837,5.21 2.3308,-0.5849 3.0706,0.2733 7.0383,8.1646 6.2137,12.3585 7.3048,16.9936 5.7561,24.4537 -1.6202,7.8042 -4.8811,10.5764 -12.4411,10.5764 -5.1012,0 -5.6528,-0.2935 -8.937,-4.7554 -4.7697,-6.4804 -7.6492,-12.984 -7.6786,-17.3436 -0.018,-2.6142 -0.5404,-3.6365 -1.8594,-3.6365 -4.9615,0 -6.1431,8.0074 -2.9947,20.2937 3.1996,12.4859 -0.3653,19.3969 -10.7221,20.7861 -6.2977,0.8447 -11.8289,-0.4436 -15.6275,-3.64 -4.3445,-3.6556 -6.5787,-3.4827 -15.0314,1.1635 -7.7758,4.2741 -12.2098,4.8027 -16.3172,1.9451 z"
       id="path13640"
       transform="scale(0.26458333)" />
    <path
       style="fill:#0000ff;stroke:#000000;stroke-width:1.11894;stroke-linecap:round;stroke-linejoin:round;stroke-miterlimit:4;stroke-dasharray:none"
       d="m 1831.9068,1120.7531 c -0.9697,-5.9224 -2.0421,-17.3935 -2.3832,-25.4913 -0.3411,-8.0979 -1.4576,-18.6718 -2.4811,-23.4977 -1.445,-6.8133 -1.8876,-15.4015 -1.9804,-38.4262 l -0.1195,-29.6518 -3.7399,-11.18935 c -2.1009,-6.28578 -8.6483,-20.50617 -14.9403,-32.44916 -6.1603,-11.69289 -13.656,-25.92802 -16.6572,-31.63363 -3.0012,-5.70561 -10.4928,-17.90396 -16.6481,-27.10745 -6.1553,-9.20348 -11.1915,-17.10225 -11.1915,-17.55281 0,-1.52939 10.2317,9.10678 22.2643,23.1444 23.1612,27.02068 45.6182,56.13068 49.8662,64.63932 7.1227,14.26662 14.407,53.52798 19.0435,102.64168 2.6278,27.8363 2.8358,26.3884 -5.0237,34.9656 -3.6968,4.0344 -8.4145,10.7195 -10.4838,14.8559 l -3.7624,7.5205 z"
       id="path13679"
       transform="scale(0.26458333)" />
    <path
       style="fill:#0000ff;stroke:#000000;stroke-width:1.11894;stroke-linecap:round;stroke-linejoin:round;stroke-miterlimit:4;stroke-dasharray:none"
       d="m 1855.4182,1078.3942 c -3.8878,-43.3534 -9.553,-78.50449 -15.8807,-98.53511 -3.1535,-9.98255 -8.2992,-18.26879 -23.1883,-37.3408 -19.682,-25.21119 -35.3772,-43.4515 -49.9062,-57.99892 -13.3993,-13.41616 -15.5996,-16.1694 -19.6727,-24.61661 l -4.586,-9.51096 0.2989,-14.54617 c 0.6429,-31.28794 4.251,-51.36071 12.2256,-68.01427 2.8836,-6.02167 5.8506,-11.45293 6.5935,-12.06945 1.5589,-1.29377 1.9562,-0.67647 45.2287,70.26987 35.8867,58.83702 58.7001,90.20546 84.0147,115.52008 l 8.9861,8.9861 -1.7573,17.62259 c -0.9665,9.69242 -2.0293,20.89547 -2.3617,24.89567 -0.9325,11.22258 -3.7428,29.41398 -6.8047,44.04798 -4.4062,21.0584 -17.2046,48.6336 -26.9538,58.0741 l -4.353,4.215 z"
       id="path13718"
       transform="scale(0.26458333)" />
    <path
       style="fill:#0000ff;stroke:#000000;stroke-width:1.11894;stroke-linecap:round;stroke-linejoin:round;stroke-miterlimit:4;stroke-dasharray:none"
       d="m 1892.7545,940.27239 c -16.783,-16.62524 -43.5772,-50.36372 -58.4958,-73.65601 -3.3504,-5.23103 -17.5864,-28.39301 -31.6354,-51.47108 -14.049,-23.07807 -28.4858,-46.64403 -32.0817,-52.3688 -3.5959,-5.72477 -6.5381,-10.94062 -6.5381,-11.59077 0,-1.21441 13.3788,-23.80864 20.2213,-34.14993 3.9069,-5.90461 7.9273,-8.61438 14.6328,-9.86268 l 3.7492,-0.69795 10.3436,31.6766 c 16.5999,50.83641 31.0636,84.36686 46.2604,107.24338 9.682,14.57479 29.2531,33.88731 45.2193,44.62171 6.7695,4.55133 12.7509,8.66528 13.292,9.14209 0.541,0.47683 -1.5856,5.86879 -4.7258,11.98216 -3.1402,6.11336 -7.0158,15.84183 -8.6124,21.61881 -4.5001,16.28315 -3.4563,15.60887 -11.6294,7.51247 z"
       id="path13757"
       transform="scale(0.26458333)" />
    <path
       style="fill:#0000ff;stroke:#000000;stroke-width:1.11894;stroke-linecap:round;stroke-linejoin:round;stroke-miterlimit:4;stroke-dasharray:none"
       d="m 1906.6401,888.59085 c -25.9653,-17.59257 -45.7474,-40.67685 -60.1355,-70.17394 -6.6776,-13.68978 -16.8845,-37.93094 -16.2417,-38.57372 0.2143,-0.2143 2.6392,1.41408 5.3887,3.61862 8.6531,6.93805 20.4826,15.51377 25.3987,18.41274 4.2813,2.52455 5.6223,4.55239 14.0062,21.17881 11.2801,22.3702 14.8473,27.66288 23.0321,34.17352 8.4365,6.71088 26.6539,15.47722 37.3856,17.99024 4.7659,1.11604 8.6682,2.34571 8.6717,2.73261 0,0.3869 -1.5727,1.35753 -3.5026,2.15695 -5.0636,2.09738 -14.493,9.4143 -17.7786,13.79556 l -2.8251,3.76725 z"
       id="path13796"
       transform="scale(0.26458333)" />
    <path
       style="fill:#0000ff;stroke:#000000;stroke-width:1.11894;stroke-linecap:round;stroke-linejoin:round;stroke-miterlimit:4;stroke-dasharray:none"
       d="m 1859.6119,798.21292 c -8.1891,-5.18683 -27.856,-20.61565 -30.9199,-24.25679 -2.8378,-3.37263 -24.0934,-65.79612 -22.8331,-67.05645 1.2817,-1.28165 15.7213,-0.29527 21.924,1.49763 7.3958,2.13779 13.5147,7.98311 19.4095,18.54165 4.5764,8.1972 10.3012,24.71442 11.3748,32.81898 1.3454,10.15619 6.1498,38.44422 6.8307,40.21862 0.9072,2.36406 0.5675,2.26053 -5.786,-1.76364 z"
       id="path13835"
       transform="scale(0.26458333)" />
  </g>
  <g
     inkscape:groupmode="layer"
     id="layer3"
     inkscape:label="Accents"
     style="display:inline"
     transform="translate(-460.49555,-186.39742)"
     sodipodi:insensitive="true">
    <path
       style="display:inline;fill:none;stroke:#000000;stroke-width:0.264583px;stroke-linecap:butt;stroke-linejoin:miter;stroke-opacity:1"
       d="m 489.26961,307.17373 c 1.71339,1.90378 3.04604,3.61717 4.42627,4.56907 1.38022,0.95189 4.66423,2.47491 6.61561,2.66528 1.95136,0.19036 6.94878,0.28556 9.04293,-0.0952 2.09415,-0.38074 7.09155,-2.23692 8.85254,-3.33158 1.76098,-1.09469 3.3792,-2.66528 4.2359,-3.56958"
       id="path3419" />
    <path
       style="display:inline;fill:none;stroke:#000000;stroke-width:0.264583px;stroke-linecap:butt;stroke-linejoin:miter;stroke-opacity:1"
       d="m 499.54997,314.21771 c -0.95187,1.14226 -1.523,1.66579 -1.90376,2.14175 -0.38076,0.47593 -0.19036,1.28502 0.28557,1.90375 0.47593,0.61873 1.38022,2.37972 1.38022,3.80754 0,1.42785 0.23797,2.71288 -0.19036,3.71237 -0.42837,0.99949 -0.76151,1.6182 -1.57061,2.23693"
       id="path3421"
       sodipodi:nodetypes="cssssc" />
    <path
       style="display:inline;fill:none;stroke:#000000;stroke-width:0.264583px;stroke-linecap:butt;stroke-linejoin:miter;stroke-opacity:1"
       d="m 507.30784,314.45567 c -0.0952,1.04707 0.0476,4.09311 0.19037,4.80703"
       id="path3555"
       sodipodi:nodetypes="cc" />
    <path
       style="display:inline;fill:none;stroke:#000000;stroke-width:0.264583px;stroke-linecap:butt;stroke-linejoin:miter;stroke-opacity:1"
       d="m 512.97159,313.17062 c 0.8091,1.61822 2.33212,4.1883 2.52249,5.04499 0.19037,0.8567 0.80909,2.37972 0.80909,3.04605"
       id="path3609"
       sodipodi:nodetypes="csc" />
    <path
       style="display:inline;fill:none;stroke:#000000;stroke-width:0.264583px;stroke-linecap:butt;stroke-linejoin:miter;stroke-opacity:1"
       d="m 518.11176,311.07647 c 1.42782,1.23745 2.66528,2.23694 3.14124,3.14124 0.47593,0.90429 0.95189,1.90375 1.04706,2.42731"
       id="path3611" />
    <path
       style="display:inline;fill:none;stroke:#000000;stroke-width:0.264583;stroke-linecap:round;stroke-linejoin:round;stroke-miterlimit:4;stroke-dasharray:0.264583, 0.793749;stroke-dashoffset:0;stroke-opacity:1"
       d="m 490.84023,223.21736 c 0.38074,2.28453 3.23641,10.70872 4.33107,12.5649 1.09469,1.85618 6.23485,11.18467 8.329,12.89806"
       id="path3613" />
    <path
       style="display:inline;fill:none;stroke:#000000;stroke-width:0.264583;stroke-linecap:round;stroke-linejoin:round;stroke-miterlimit:4;stroke-dasharray:0.264583, 0.793749;stroke-dashoffset:0;stroke-opacity:1"
       d="m 484.36389,302.24235 c 1.4111,-3.175 1.85208,-4.93887 3.52777,-7.14375 1.67569,-2.20485 4.40973,-4.14512 6.1736,-6.52637 1.7639,-2.38125 4.32155,-8.20209 5.02709,-10.31875 0.70556,-2.11667 2.11666,-9.78959 2.38125,-12.34723 0.26458,-2.55764 0.97014,-11.28889 1.23473,-12.87639 0.26458,-1.5875 1.32291,-6.87917 2.29306,-8.90764 0.97012,-2.02847 3.175,-6.52639 4.23333,-7.76111 1.05834,-1.23472 4.23334,-3.79236 7.14375,-4.14514"
       id="path3681" />
  </g>
</svg>
